<svg version="1.0" id="Layer_1" xmlns="http://www.w3.org/2000/svg" xmlns:xlink="http://www.w3.org/1999/xlink" x="0px" y="0px"
   viewBox="0 0 512 512" style="enable-background:new 0 0 512 512;" xml:space="preserve">
<style type="text/css">
  .st0{fill-rule:evenodd;clip-rule:evenodd;fill:#E61739;}
</style>
<path class="st0" d="M510.24,277.29h0.02 M510.5,237.87h-0.05 M461.51,307.65h-40.4v-30.36h-42.1
  c-9.32,60.12-60.71,106.11-122.71,106.11c-68.61,0-124.22-56.3-124.22-125.75c0-69.45,55.62-125.75,124.22-125.75
  c61.96,0,113.31,45.92,122.69,105.97h131.47C501.13,105.59,391,1.14,256.36,1.14C115.6,1.14,1.5,115.25,1.5,256
  s114.1,254.86,254.86,254.86c133.58,0,243.06-102.78,253.89-233.57h-48.74V307.65z M172.16,257.65c0,47.03,37.66,85.16,84.13,85.16
  c46.46,0,84.13-38.13,84.13-85.16c0-47.04-37.66-85.16-84.13-85.16C209.83,172.49,172.16,210.61,172.16,257.65z"/>
</svg>
